<svg width="39" height="39" viewBox="0 0 39 39" fill="none" xmlns="http://www.w3.org/2000/svg">
<path d="M20.865 25.935L25.935 20.865C26.2925 20.5075 26.4713 20.0525 26.4713 19.5C26.4713 18.9475 26.2925 18.4925 25.935 18.135L20.8162 13.0163C20.4587 12.6588 20.0122 12.4878 19.4766 12.5034C18.9397 12.5203 18.4925 12.7075 18.135 13.065C17.7775 13.4225 17.5987 13.8775 17.5987 14.43C17.5987 14.9825 17.7775 15.4375 18.135 15.795L19.89 17.55H13.6013C13.0488 17.55 12.5937 17.7365 12.2362 18.1096C11.8787 18.484 11.7 18.9475 11.7 19.5C11.7 20.0525 11.8872 20.5153 12.2616 20.8884C12.6347 21.2628 13.0975 21.45 13.65 21.45H19.89L18.0863 23.2537C17.7288 23.6112 17.5578 24.0585 17.5734 24.5954C17.5903 25.131 17.7775 25.5775 18.135 25.935C18.4925 26.2925 18.9475 26.4713 19.5 26.4713C20.0525 26.4713 20.5075 26.2925 20.865 25.935ZM19.5 39C16.8025 39 14.2675 38.4878 11.895 37.4634C9.5225 36.4403 7.45875 35.0513 5.70375 33.2963C3.94875 31.5413 2.5597 29.4775 1.5366 27.105C0.5122 24.7325 0 22.1975 0 19.5C0 16.8025 0.5122 14.2675 1.5366 11.895C2.5597 9.5225 3.94875 7.45875 5.70375 5.70375C7.45875 3.94875 9.5225 2.55905 11.895 1.53465C14.2675 0.51155 16.8025 0 19.5 0C22.1975 0 24.7325 0.51155 27.105 1.53465C29.4775 2.55905 31.5413 3.94875 33.2963 5.70375C35.0513 7.45875 36.4403 9.5225 37.4634 11.895C38.4878 14.2675 39 16.8025 39 19.5C39 22.1975 38.4878 24.7325 37.4634 27.105C36.4403 29.4775 35.0513 31.5413 33.2963 33.2963C31.5413 35.0513 29.4775 36.4403 27.105 37.4634C24.7325 38.4878 22.1975 39 19.5 39Z" fill="#4453D9"/>
</svg>
